<?xml version="1.0" standalone="no"?><!DOCTYPE svg PUBLIC "-//W3C//DTD SVG 1.1//EN"
        "http://www.w3.org/Graphics/SVG/1.1/DTD/svg11.dtd">
<svg t="1509507038569" class="icon" style="" viewBox="0 0 1025 1024" version="1.1" xmlns="http://www.w3.org/2000/svg"
     p-id="10248" xmlns:xlink="http://www.w3.org/1999/xlink" width="128.125" height="128">
    <defs>
        <style type="text/css"></style>
    </defs>
    <path d="M90.272 842.923h843.715v62.322h-843.715v-62.322z" p-id="10249"></path>
    <path d="M813.766 511.482l-181.992-181.234-270.147 335.669-151.347-124.224-120.007 120.851-0.147 60.805 120.427-122.956 154.020 120.854 267.753-330.476 181.442 180.597 120.219-89.724v-56.459z"
          p-id="10250"></path>
    <path d="M210.552 629.907l-90.15 92.676v90.643h150.829v-134.442z" p-id="10251"></path>
    <path d="M363.731 753.289l-32.392-26.092v86.028h150.74v-207.407z" p-id="10252"></path>
    <path d="M632.325 418.597l-90.143 112.326v282.303h150.689v-332.957z" p-id="10253"></path>
    <path d="M813.766 603.412l-60.79-61.921v271.734h150.689v-278.17z" p-id="10254"></path>
    <path d="M692.871 361.023v-240.68h-150.689v289.748l89.592-111.043z" p-id="10255"></path>
    <path d="M271.231 561.19v-230.284h-150.829v271.152l89.878-89.878z" p-id="10256"></path>
    <path d="M482.077 484.587v-32.703h-150.74v157.634l30.29 24.356z" p-id="10257"></path>
    <path d="M903.665 417.862v-147.573h-150.689v151.703l60.79 61.663z" p-id="10258"></path>
</svg>